<svg width="400" height="39" viewBox="0 0 400 39" fill="none" xmlns="http://www.w3.org/2000/svg">
<path d="M0.632 4.016C1.464 4.048 2.552 4.08 3.896 4.112C5.24 4.144 6.584 4.16 7.928 4.16C9.464 4.16 10.952 4.144 12.392 4.112C13.832 4.08 14.856 4.064 15.464 4.064C19.432 4.064 22.392 4.768 24.344 6.176C26.328 7.584 27.32 9.392 27.32 11.6C27.32 12.72 26.984 13.856 26.312 15.008C25.64 16.16 24.6 17.184 23.192 18.08C21.784 18.976 19.96 19.632 17.72 20.048V20.144C20.728 20.368 23.112 20.912 24.872 21.776C26.632 22.64 27.896 23.68 28.664 24.896C29.432 26.112 29.816 27.376 29.816 28.688C29.816 30.704 29.288 32.4 28.232 33.776C27.176 35.152 25.656 36.208 23.672 36.944C21.688 37.648 19.32 38 16.568 38C15.8 38 14.696 37.984 13.256 37.952C11.816 37.888 10.072 37.856 8.024 37.856C6.616 37.856 5.24 37.872 3.896 37.904C2.552 37.904 1.464 37.936 0.632 38V37.04C1.656 36.976 2.424 36.848 2.936 36.656C3.448 36.464 3.784 36.08 3.944 35.504C4.136 34.928 4.232 34.064 4.232 32.912V9.104C4.232 7.92 4.136 7.056 3.944 6.512C3.784 5.936 3.432 5.552 2.888 5.36C2.376 5.136 1.624 5.008 0.632 4.976V4.016ZM14.84 4.976C13.592 4.976 12.776 5.248 12.392 5.792C12.04 6.336 11.864 7.44 11.864 9.104V32.912C11.864 34.032 11.944 34.88 12.104 35.456C12.296 36.032 12.616 36.416 13.064 36.608C13.544 36.8 14.248 36.896 15.176 36.896C17.48 36.896 19.16 36.176 20.216 34.736C21.304 33.264 21.848 31.184 21.848 28.496C21.848 26.032 21.224 24.128 19.976 22.784C18.76 21.44 16.728 20.768 13.88 20.768H9.8C9.8 20.768 9.8 20.64 9.8 20.384C9.8 20.096 9.8 19.952 9.8 19.952H13.928C15.432 19.952 16.584 19.6 17.384 18.896C18.184 18.16 18.744 17.2 19.064 16.016C19.384 14.8 19.544 13.504 19.544 12.128C19.544 9.76 19.176 7.984 18.44 6.8C17.704 5.584 16.504 4.976 14.84 4.976ZM44.786 12.512C47.602 12.512 49.81 13.344 51.41 15.008C53.01 16.672 53.81 19.392 53.81 23.168H38.018L37.922 22.256H47.762C47.794 20.688 47.698 19.248 47.474 17.936C47.25 16.592 46.898 15.52 46.418 14.72C45.938 13.92 45.298 13.52 44.498 13.52C43.378 13.52 42.418 14.224 41.618 15.632C40.85 17.04 40.386 19.376 40.226 22.64L40.37 22.928C40.338 23.312 40.306 23.712 40.274 24.128C40.274 24.544 40.274 24.976 40.274 25.424C40.274 27.632 40.578 29.424 41.186 30.8C41.826 32.176 42.626 33.184 43.586 33.824C44.546 34.432 45.522 34.736 46.514 34.736C47.186 34.736 47.874 34.64 48.578 34.448C49.314 34.224 50.05 33.84 50.786 33.296C51.522 32.72 52.21 31.92 52.85 30.896L53.714 31.184C53.33 32.4 52.722 33.584 51.89 34.736C51.058 35.888 50.002 36.832 48.722 37.568C47.442 38.304 45.906 38.672 44.114 38.672C41.938 38.672 40.018 38.208 38.354 37.28C36.69 36.352 35.378 34.944 34.418 33.056C33.49 31.168 33.026 28.768 33.026 25.856C33.026 22.88 33.522 20.4 34.514 18.416C35.538 16.432 36.93 14.96 38.69 14C40.482 13.008 42.514 12.512 44.786 12.512ZM63.2135 38.336C61.7735 38.336 60.5735 38.064 59.6135 37.52C58.6535 36.976 57.9495 36.256 57.5015 35.36C57.0535 34.432 56.8295 33.424 56.8295 32.336C56.8295 30.96 57.1335 29.84 57.7415 28.976C58.3815 28.112 59.1975 27.408 60.1895 26.864C61.1815 26.32 62.2215 25.872 63.3095 25.52C64.4295 25.168 65.4855 24.832 66.4775 24.512C67.5015 24.16 68.3175 23.76 68.9255 23.312C69.5655 22.832 69.8855 22.224 69.8855 21.488V17.744C69.8855 16.912 69.7415 16.176 69.4535 15.536C69.1975 14.864 68.7815 14.352 68.2055 14C67.6615 13.648 66.9415 13.472 66.0455 13.472C65.4055 13.472 64.7655 13.568 64.1255 13.76C63.4855 13.92 62.9575 14.208 62.5415 14.624C63.4375 14.944 64.1255 15.44 64.6055 16.112C65.1175 16.752 65.3735 17.488 65.3735 18.32C65.3735 19.408 64.9895 20.272 64.2215 20.912C63.4855 21.552 62.6055 21.872 61.5815 21.872C60.4295 21.872 59.5495 21.52 58.9415 20.816C58.3655 20.08 58.0775 19.2 58.0775 18.176C58.0775 17.248 58.3015 16.48 58.7495 15.872C59.2295 15.264 59.8855 14.688 60.7175 14.144C61.6135 13.632 62.6855 13.232 63.9335 12.944C65.2135 12.656 66.5895 12.512 68.0615 12.512C69.5335 12.512 70.8615 12.672 72.0455 12.992C73.2295 13.28 74.2215 13.824 75.0215 14.624C75.7575 15.36 76.2375 16.272 76.4615 17.36C76.6855 18.416 76.7975 19.76 76.7975 21.392V34.448C76.7975 35.248 76.8775 35.808 77.0375 36.128C77.1975 36.416 77.4695 36.56 77.8535 36.56C78.1415 36.56 78.4135 36.48 78.6695 36.32C78.9575 36.16 79.2615 35.968 79.5815 35.744L80.0615 36.56C79.3895 37.136 78.6055 37.584 77.7095 37.904C76.8455 38.192 75.8695 38.336 74.7815 38.336C73.5975 38.336 72.6535 38.176 71.9495 37.856C71.2455 37.504 70.7335 37.04 70.4135 36.464C70.1255 35.888 69.9815 35.216 69.9815 34.448C69.2135 35.664 68.2855 36.624 67.1975 37.328C66.1095 38 64.7815 38.336 63.2135 38.336ZM66.6215 35.264C67.2615 35.264 67.8375 35.12 68.3495 34.832C68.8935 34.512 69.4055 34 69.8855 33.296V23.456C69.5975 23.936 69.1975 24.368 68.6855 24.752C68.1735 25.136 67.6295 25.536 67.0535 25.952C66.4775 26.336 65.9175 26.768 65.3735 27.248C64.8615 27.728 64.4455 28.32 64.1255 29.024C63.8055 29.728 63.6455 30.576 63.6455 31.568C63.6455 32.816 63.9175 33.744 64.4615 34.352C65.0055 34.96 65.7255 35.264 66.6215 35.264ZM91.1773 5.312V13.184H96.8413V14.144H91.1773V33.536C91.1773 34.496 91.3533 35.184 91.7053 35.6C92.0573 35.984 92.5853 36.176 93.2893 36.176C93.8653 36.176 94.4413 35.968 95.0173 35.552C95.5933 35.104 96.1053 34.352 96.5533 33.296L97.3693 33.728C96.8573 35.168 96.0733 36.352 95.0173 37.28C93.9933 38.208 92.5853 38.672 90.7933 38.672C89.7373 38.672 88.8093 38.528 88.0093 38.24C87.2093 37.984 86.5373 37.584 85.9933 37.04C85.2893 36.336 84.8253 35.472 84.6013 34.448C84.3773 33.392 84.2653 32.032 84.2653 30.368V14.144H80.2332V13.184H84.2653V6.848C85.6093 6.848 86.8413 6.736 87.9613 6.512C89.1133 6.256 90.1853 5.856 91.1773 5.312ZM114.82 12.512C115.844 12.512 116.676 12.736 117.316 13.184C117.956 13.6 118.42 14.144 118.708 14.816C119.028 15.488 119.188 16.192 119.188 16.928C119.188 18.112 118.836 19.088 118.132 19.856C117.46 20.592 116.564 20.96 115.444 20.96C114.324 20.96 113.444 20.688 112.804 20.144C112.196 19.568 111.892 18.816 111.892 17.888C111.892 16.992 112.084 16.256 112.468 15.68C112.884 15.072 113.396 14.56 114.004 14.144C113.556 14.016 113.108 14.032 112.66 14.192C112.052 14.288 111.476 14.544 110.932 14.96C110.388 15.344 109.924 15.84 109.54 16.448C109.156 17.024 108.852 17.664 108.628 18.368C108.404 19.04 108.292 19.696 108.292 20.336V33.056C108.292 34.592 108.66 35.632 109.396 36.176C110.164 36.72 111.3 36.992 112.804 36.992V38C112.068 37.968 110.996 37.936 109.588 37.904C108.18 37.84 106.708 37.808 105.172 37.808C103.892 37.808 102.596 37.84 101.284 37.904C99.9723 37.936 98.9803 37.968 98.3083 38V36.992C99.4283 36.992 100.212 36.752 100.66 36.272C101.14 35.792 101.38 34.88 101.38 33.536V18.416C101.38 16.976 101.156 15.92 100.708 15.248C100.292 14.544 99.4923 14.192 98.3083 14.192V13.184C99.3323 13.28 100.324 13.328 101.284 13.328C102.628 13.328 103.876 13.28 105.028 13.184C106.212 13.056 107.3 12.88 108.292 12.656V17.12C108.676 16.256 109.188 15.472 109.828 14.768C110.468 14.064 111.204 13.52 112.036 13.136C112.868 12.72 113.796 12.512 114.82 12.512ZM126.955 0.799998C128.299 0.799998 129.355 1.136 130.123 1.808C130.923 2.448 131.323 3.344 131.323 4.496C131.323 5.648 130.923 6.56 130.123 7.232C129.355 7.872 128.299 8.192 126.955 8.192C125.611 8.192 124.539 7.872 123.739 7.232C122.971 6.56 122.587 5.648 122.587 4.496C122.587 3.344 122.971 2.448 123.739 1.808C124.539 1.136 125.611 0.799998 126.955 0.799998ZM130.699 12.656V33.536C130.699 34.88 130.923 35.792 131.371 36.272C131.851 36.752 132.651 36.992 133.771 36.992V38C133.195 37.968 132.299 37.936 131.083 37.904C129.867 37.84 128.635 37.808 127.387 37.808C126.139 37.808 124.875 37.84 123.595 37.904C122.315 37.936 121.355 37.968 120.715 38V36.992C121.835 36.992 122.619 36.752 123.067 36.272C123.547 35.792 123.787 34.88 123.787 33.536V18.416C123.787 16.976 123.563 15.92 123.115 15.248C122.699 14.544 121.899 14.192 120.715 14.192V13.184C121.739 13.28 122.731 13.328 123.691 13.328C125.035 13.328 126.283 13.28 127.435 13.184C128.619 13.056 129.707 12.88 130.699 12.656ZM156.015 12.944L144.015 37.28H146.511C147.759 37.28 148.927 37.024 150.015 36.512C151.135 35.968 152.063 35.072 152.799 33.824C153.567 32.576 154.031 30.864 154.191 28.688H155.199C155.199 31.024 155.215 32.944 155.247 34.448C155.279 35.92 155.327 37.168 155.391 38.192C153.951 38.128 152.447 38.08 150.879 38.048C149.311 38.016 147.743 38 146.175 38C144.543 38 142.863 38.016 141.135 38.048C139.407 38.112 137.759 38.176 136.191 38.24L148.191 13.904H145.503C144.223 13.904 143.039 14.176 141.951 14.72C140.895 15.232 140.015 16.128 139.311 17.408C138.639 18.656 138.207 20.352 138.015 22.496H137.007C137.007 20.128 136.991 18.208 136.959 16.736C136.927 15.264 136.879 14.016 136.815 12.992C138.287 13.056 139.807 13.104 141.375 13.136C142.943 13.168 144.495 13.184 146.031 13.184C147.695 13.184 149.375 13.168 151.071 13.136C152.799 13.072 154.447 13.008 156.015 12.944ZM195.953 4.016C195.825 5.456 195.729 6.848 195.665 8.192C195.633 9.536 195.617 10.576 195.617 11.312C195.617 12.016 195.633 12.688 195.665 13.328C195.697 13.968 195.729 14.512 195.761 14.96H194.657C194.241 12.464 193.665 10.512 192.929 9.104C192.193 7.664 191.281 6.64 190.193 6.032C189.137 5.424 187.873 5.12 186.401 5.12H184.817C183.889 5.12 183.185 5.2 182.705 5.36C182.225 5.52 181.905 5.84 181.745 6.32C181.585 6.8 181.505 7.536 181.505 8.528V32.624C181.505 33.872 181.633 34.8 181.889 35.408C182.145 36.016 182.641 36.416 183.377 36.608C184.113 36.8 185.201 36.912 186.641 36.944V38C185.649 37.968 184.369 37.936 182.801 37.904C181.233 37.872 179.585 37.856 177.857 37.856C176.481 37.856 175.137 37.872 173.825 37.904C172.513 37.936 171.329 37.968 170.273 38V37.04C171.297 36.976 172.065 36.848 172.577 36.656C173.089 36.464 173.425 36.08 173.585 35.504C173.777 34.928 173.873 34.064 173.873 32.912V9.104C173.873 7.92 173.777 7.056 173.585 6.512C173.425 5.936 173.073 5.552 172.529 5.36C172.017 5.136 171.265 5.008 170.273 4.976V4.016C171.585 4.048 172.977 4.08 174.449 4.112C175.921 4.112 177.377 4.128 178.817 4.16C180.257 4.16 181.601 4.16 182.849 4.16C184.097 4.16 185.121 4.16 185.921 4.16C187.393 4.16 189.057 4.16 190.913 4.16C192.801 4.128 194.481 4.08 195.953 4.016ZM188.801 20.624C188.801 20.624 188.801 20.784 188.801 21.104C188.801 21.424 188.801 21.584 188.801 21.584H180.065C180.065 21.584 180.065 21.424 180.065 21.104C180.065 20.784 180.065 20.624 180.065 20.624H188.801ZM190.001 14.288C189.873 16.112 189.809 17.504 189.809 18.464C189.841 19.424 189.857 20.304 189.857 21.104C189.857 21.904 189.873 22.784 189.905 23.744C189.937 24.704 190.017 26.096 190.145 27.92H189.041C188.849 26.8 188.545 25.76 188.129 24.8C187.713 23.84 187.105 23.072 186.305 22.496C185.505 21.888 184.465 21.584 183.185 21.584V20.624C184.145 20.624 184.945 20.432 185.585 20.048C186.257 19.632 186.817 19.104 187.265 18.464C187.713 17.792 188.065 17.088 188.321 16.352C188.577 15.616 188.769 14.928 188.897 14.288H190.001ZM209.364 12.512C212.18 12.512 214.388 13.344 215.988 15.008C217.588 16.672 218.388 19.392 218.388 23.168H202.596L202.5 22.256H212.34C212.372 20.688 212.276 19.248 212.052 17.936C211.828 16.592 211.476 15.52 210.996 14.72C210.516 13.92 209.876 13.52 209.076 13.52C207.956 13.52 206.996 14.224 206.196 15.632C205.428 17.04 204.964 19.376 204.804 22.64L204.948 22.928C204.916 23.312 204.884 23.712 204.852 24.128C204.852 24.544 204.852 24.976 204.852 25.424C204.852 27.632 205.156 29.424 205.764 30.8C206.404 32.176 207.204 33.184 208.164 33.824C209.124 34.432 210.1 34.736 211.092 34.736C211.764 34.736 212.452 34.64 213.156 34.448C213.892 34.224 214.628 33.84 215.364 33.296C216.1 32.72 216.788 31.92 217.428 30.896L218.292 31.184C217.908 32.4 217.3 33.584 216.468 34.736C215.636 35.888 214.58 36.832 213.3 37.568C212.02 38.304 210.484 38.672 208.692 38.672C206.516 38.672 204.596 38.208 202.932 37.28C201.268 36.352 199.956 34.944 198.996 33.056C198.068 31.168 197.604 28.768 197.604 25.856C197.604 22.88 198.1 20.4 199.092 18.416C200.116 16.432 201.508 14.96 203.268 14C205.06 13.008 207.092 12.512 209.364 12.512ZM237.398 12.512C238.422 12.512 239.254 12.736 239.894 13.184C240.534 13.6 240.998 14.144 241.286 14.816C241.606 15.488 241.766 16.192 241.766 16.928C241.766 18.112 241.414 19.088 240.71 19.856C240.038 20.592 239.142 20.96 238.022 20.96C236.902 20.96 236.022 20.688 235.382 20.144C234.774 19.568 234.47 18.816 234.47 17.888C234.47 16.992 234.662 16.256 235.046 15.68C235.462 15.072 235.974 14.56 236.582 14.144C236.134 14.016 235.686 14.032 235.238 14.192C234.63 14.288 234.054 14.544 233.51 14.96C232.966 15.344 232.502 15.84 232.118 16.448C231.734 17.024 231.43 17.664 231.206 18.368C230.982 19.04 230.87 19.696 230.87 20.336V33.056C230.87 34.592 231.238 35.632 231.974 36.176C232.742 36.72 233.878 36.992 235.382 36.992V38C234.646 37.968 233.574 37.936 232.166 37.904C230.758 37.84 229.286 37.808 227.75 37.808C226.47 37.808 225.174 37.84 223.862 37.904C222.55 37.936 221.558 37.968 220.886 38V36.992C222.006 36.992 222.79 36.752 223.238 36.272C223.718 35.792 223.958 34.88 223.958 33.536V18.416C223.958 16.976 223.734 15.92 223.286 15.248C222.87 14.544 222.07 14.192 220.886 14.192V13.184C221.91 13.28 222.902 13.328 223.862 13.328C225.206 13.328 226.454 13.28 227.606 13.184C228.79 13.056 229.878 12.88 230.87 12.656V17.12C231.254 16.256 231.766 15.472 232.406 14.768C233.046 14.064 233.782 13.52 234.614 13.136C235.446 12.72 236.374 12.512 237.398 12.512ZM261.149 12.512C262.493 12.512 263.581 12.688 264.413 13.04C265.277 13.36 265.949 13.808 266.429 14.384C266.941 14.992 267.309 15.776 267.533 16.736C267.789 17.696 267.917 18.992 267.917 20.624V33.536C267.917 34.88 268.141 35.792 268.589 36.272C269.069 36.752 269.869 36.992 270.989 36.992V38C270.381 37.968 269.469 37.936 268.253 37.904C267.037 37.84 265.837 37.808 264.653 37.808C263.437 37.808 262.237 37.84 261.053 37.904C259.901 37.936 259.021 37.968 258.413 38V36.992C259.373 36.992 260.045 36.752 260.429 36.272C260.813 35.792 261.005 34.88 261.005 33.536V18.608C261.005 17.808 260.925 17.12 260.765 16.544C260.605 15.936 260.317 15.472 259.901 15.152C259.485 14.8 258.861 14.624 258.029 14.624C257.165 14.624 256.365 14.864 255.629 15.344C254.925 15.824 254.349 16.496 253.901 17.36C253.485 18.192 253.277 19.136 253.277 20.192V33.536C253.277 34.88 253.469 35.792 253.853 36.272C254.269 36.752 254.941 36.992 255.869 36.992V38C255.293 37.968 254.445 37.936 253.325 37.904C252.237 37.84 251.101 37.808 249.917 37.808C248.701 37.808 247.453 37.84 246.173 37.904C244.893 37.936 243.933 37.968 243.293 38V36.992C244.413 36.992 245.197 36.752 245.645 36.272C246.125 35.792 246.365 34.88 246.365 33.536V18.416C246.365 16.976 246.141 15.92 245.693 15.248C245.277 14.544 244.477 14.192 243.293 14.192V13.184C244.317 13.28 245.309 13.328 246.269 13.328C247.613 13.328 248.861 13.28 250.013 13.184C251.197 13.056 252.285 12.88 253.277 12.656V16.976C254.077 15.344 255.165 14.192 256.541 13.52C257.917 12.848 259.453 12.512 261.149 12.512ZM279.401 38.336C277.961 38.336 276.761 38.064 275.801 37.52C274.841 36.976 274.137 36.256 273.689 35.36C273.241 34.432 273.017 33.424 273.017 32.336C273.017 30.96 273.321 29.84 273.929 28.976C274.569 28.112 275.385 27.408 276.377 26.864C277.369 26.32 278.409 25.872 279.497 25.52C280.617 25.168 281.673 24.832 282.665 24.512C283.689 24.16 284.505 23.76 285.113 23.312C285.753 22.832 286.073 22.224 286.073 21.488V17.744C286.073 16.912 285.929 16.176 285.641 15.536C285.385 14.864 284.969 14.352 284.393 14C283.849 13.648 283.129 13.472 282.233 13.472C281.593 13.472 280.953 13.568 280.313 13.76C279.673 13.92 279.145 14.208 278.729 14.624C279.625 14.944 280.313 15.44 280.793 16.112C281.305 16.752 281.561 17.488 281.561 18.32C281.561 19.408 281.177 20.272 280.409 20.912C279.673 21.552 278.793 21.872 277.769 21.872C276.617 21.872 275.737 21.52 275.129 20.816C274.553 20.08 274.265 19.2 274.265 18.176C274.265 17.248 274.489 16.48 274.937 15.872C275.417 15.264 276.073 14.688 276.905 14.144C277.801 13.632 278.873 13.232 280.121 12.944C281.401 12.656 282.777 12.512 284.249 12.512C285.721 12.512 287.049 12.672 288.233 12.992C289.417 13.28 290.409 13.824 291.209 14.624C291.945 15.36 292.425 16.272 292.649 17.36C292.873 18.416 292.985 19.76 292.985 21.392V34.448C292.985 35.248 293.065 35.808 293.225 36.128C293.385 36.416 293.657 36.56 294.041 36.56C294.329 36.56 294.601 36.48 294.857 36.32C295.145 36.16 295.449 35.968 295.769 35.744L296.249 36.56C295.577 37.136 294.793 37.584 293.897 37.904C293.033 38.192 292.057 38.336 290.969 38.336C289.785 38.336 288.841 38.176 288.137 37.856C287.433 37.504 286.921 37.04 286.601 36.464C286.313 35.888 286.169 35.216 286.169 34.448C285.401 35.664 284.473 36.624 283.385 37.328C282.297 38 280.969 38.336 279.401 38.336ZM282.809 35.264C283.449 35.264 284.025 35.12 284.537 34.832C285.081 34.512 285.593 34 286.073 33.296V23.456C285.785 23.936 285.385 24.368 284.873 24.752C284.361 25.136 283.817 25.536 283.241 25.952C282.665 26.336 282.105 26.768 281.561 27.248C281.049 27.728 280.633 28.32 280.313 29.024C279.993 29.728 279.833 30.576 279.833 31.568C279.833 32.816 280.105 33.744 280.649 34.352C281.193 34.96 281.913 35.264 282.809 35.264ZM315.477 12.512C316.821 12.512 317.909 12.688 318.741 13.04C319.605 13.36 320.277 13.808 320.757 14.384C321.269 14.992 321.637 15.776 321.861 16.736C322.117 17.696 322.245 18.992 322.245 20.624V33.536C322.245 34.88 322.469 35.792 322.917 36.272C323.397 36.752 324.197 36.992 325.317 36.992V38C324.709 37.968 323.797 37.936 322.581 37.904C321.365 37.84 320.165 37.808 318.981 37.808C317.765 37.808 316.565 37.84 315.381 37.904C314.229 37.936 313.349 37.968 312.741 38V36.992C313.701 36.992 314.373 36.752 314.757 36.272C315.141 35.792 315.333 34.88 315.333 33.536V18.608C315.333 17.808 315.253 17.12 315.093 16.544C314.933 15.936 314.645 15.472 314.229 15.152C313.813 14.8 313.189 14.624 312.357 14.624C311.493 14.624 310.693 14.864 309.957 15.344C309.253 15.824 308.677 16.496 308.229 17.36C307.813 18.192 307.605 19.136 307.605 20.192V33.536C307.605 34.88 307.797 35.792 308.181 36.272C308.597 36.752 309.269 36.992 310.197 36.992V38C309.621 37.968 308.773 37.936 307.653 37.904C306.565 37.84 305.429 37.808 304.245 37.808C303.029 37.808 301.781 37.84 300.501 37.904C299.221 37.936 298.261 37.968 297.621 38V36.992C298.741 36.992 299.525 36.752 299.973 36.272C300.453 35.792 300.693 34.88 300.693 33.536V18.416C300.693 16.976 300.469 15.92 300.021 15.248C299.605 14.544 298.805 14.192 297.621 14.192V13.184C298.645 13.28 299.637 13.328 300.597 13.328C301.941 13.328 303.189 13.28 304.341 13.184C305.525 13.056 306.613 12.88 307.605 12.656V16.976C308.405 15.344 309.493 14.192 310.869 13.52C312.245 12.848 313.781 12.512 315.477 12.512ZM350.721 0.415998V32.72C350.721 34.16 350.945 35.232 351.393 35.936C351.841 36.608 352.641 36.944 353.793 36.944V37.952C352.801 37.856 351.809 37.808 350.817 37.808C349.473 37.808 348.209 37.856 347.025 37.952C345.873 38.048 344.801 38.224 343.809 38.48V6.176C343.809 4.736 343.585 3.68 343.137 3.008C342.721 2.304 341.921 1.952 340.737 1.952V0.943999C341.761 1.04 342.753 1.088 343.713 1.088C345.025 1.088 346.273 1.04 347.457 0.943999C348.641 0.815999 349.729 0.639998 350.721 0.415998ZM338.481 12.512C339.889 12.512 341.121 12.752 342.177 13.232C343.265 13.68 344.113 14.448 344.721 15.536L344.145 16.064C343.729 15.296 343.169 14.752 342.465 14.432C341.793 14.08 341.073 13.904 340.305 13.904C338.673 13.904 337.377 14.864 336.417 16.784C335.457 18.672 334.993 21.6 335.025 25.568C335.025 28.288 335.201 30.464 335.553 32.096C335.937 33.696 336.465 34.848 337.137 35.552C337.841 36.256 338.641 36.608 339.537 36.608C340.625 36.608 341.601 36.176 342.465 35.312C343.329 34.448 343.793 33.28 343.857 31.808L344.097 33.488C343.617 35.184 342.833 36.48 341.745 37.376C340.689 38.24 339.297 38.672 337.569 38.672C335.681 38.672 333.985 38.208 332.481 37.28C331.009 36.352 329.857 34.928 329.025 33.008C328.193 31.056 327.777 28.544 327.777 25.472C327.777 22.56 328.241 20.16 329.169 18.272C330.097 16.352 331.361 14.912 332.961 13.952C334.593 12.992 336.433 12.512 338.481 12.512ZM368.177 12.512C370.993 12.512 373.201 13.344 374.801 15.008C376.401 16.672 377.201 19.392 377.201 23.168H361.409L361.313 22.256H371.153C371.185 20.688 371.089 19.248 370.865 17.936C370.641 16.592 370.289 15.52 369.809 14.72C369.329 13.92 368.689 13.52 367.889 13.52C366.769 13.52 365.809 14.224 365.009 15.632C364.241 17.04 363.777 19.376 363.617 22.64L363.761 22.928C363.729 23.312 363.697 23.712 363.665 24.128C363.665 24.544 363.665 24.976 363.665 25.424C363.665 27.632 363.969 29.424 364.577 30.8C365.217 32.176 366.017 33.184 366.977 33.824C367.937 34.432 368.913 34.736 369.905 34.736C370.577 34.736 371.265 34.64 371.969 34.448C372.705 34.224 373.441 33.84 374.177 33.296C374.913 32.72 375.601 31.92 376.241 30.896L377.105 31.184C376.721 32.4 376.113 33.584 375.281 34.736C374.449 35.888 373.393 36.832 372.113 37.568C370.833 38.304 369.297 38.672 367.505 38.672C365.329 38.672 363.409 38.208 361.745 37.28C360.081 36.352 358.769 34.944 357.809 33.056C356.881 31.168 356.417 28.768 356.417 25.856C356.417 22.88 356.913 20.4 357.905 18.416C358.929 16.432 360.321 14.96 362.081 14C363.873 13.008 365.905 12.512 368.177 12.512ZM389.484 12.512C390.828 12.512 391.996 12.688 392.988 13.04C394.012 13.36 394.748 13.68 395.196 14C396.284 14.736 396.956 14.256 397.212 12.56H398.22C398.156 13.456 398.108 14.56 398.076 15.872C398.044 17.152 398.028 18.864 398.028 21.008H397.02C396.86 19.824 396.556 18.656 396.108 17.504C395.66 16.352 395.004 15.408 394.14 14.672C393.308 13.936 392.22 13.568 390.876 13.568C389.948 13.568 389.164 13.84 388.524 14.384C387.884 14.896 387.564 15.648 387.564 16.64C387.564 17.6 387.852 18.448 388.428 19.184C389.004 19.888 389.74 20.576 390.636 21.248C391.564 21.888 392.524 22.576 393.516 23.312C394.572 24.112 395.532 24.912 396.396 25.712C397.26 26.48 397.948 27.328 398.46 28.256C398.972 29.184 399.228 30.288 399.228 31.568C399.228 33.008 398.812 34.272 397.98 35.36C397.148 36.416 396.044 37.232 394.668 37.808C393.324 38.384 391.82 38.672 390.156 38.672C389.196 38.672 388.332 38.576 387.564 38.384C386.828 38.192 386.188 37.952 385.644 37.664C385.228 37.472 384.828 37.296 384.444 37.136C384.092 36.944 383.756 36.784 383.436 36.656C383.116 36.56 382.828 36.672 382.572 36.992C382.348 37.312 382.172 37.76 382.044 38.336H381.036C381.1 37.312 381.148 36.064 381.18 34.592C381.212 33.12 381.228 31.168 381.228 28.736H382.236C382.428 30.464 382.78 32 383.292 33.344C383.804 34.656 384.492 35.696 385.356 36.464C386.252 37.2 387.372 37.568 388.716 37.568C389.26 37.568 389.788 37.456 390.3 37.232C390.812 37.008 391.228 36.64 391.548 36.128C391.9 35.616 392.076 34.96 392.076 34.16C392.076 32.752 391.612 31.584 390.684 30.656C389.788 29.728 388.636 28.72 387.228 27.632C386.204 26.8 385.228 25.984 384.3 25.184C383.404 24.352 382.668 23.456 382.092 22.496C381.516 21.504 381.228 20.384 381.228 19.136C381.228 17.696 381.612 16.48 382.38 15.488C383.148 14.496 384.156 13.76 385.404 13.28C386.684 12.768 388.044 12.512 389.484 12.512Z" fill="#141414"/>
</svg>
